<svg width="15" height="34" viewBox="0 0 15 34" fill="none" xmlns="http://www.w3.org/2000/svg">
<path d="M4.76545 17.8765V32.0221C4.76545 32.8483 5.43523 33.5176 6.26094 33.5176C7.0869 33.5176 7.75669 32.8483 7.75669 32.0221V21.1023H8.31736V32.0221C8.31736 32.8483 8.98715 33.5176 9.81286 33.5176C10.6388 33.5176 11.3086 32.8483 11.3086 32.0221V13.8821C11.3893 14.0491 11.4612 14.2202 11.5239 14.3947C11.8648 15.3398 12.1516 16.8904 12.1506 19.3107C12.1506 19.9777 12.1291 20.7105 12.0824 21.5153C12.0512 22.0487 12.4585 22.5063 12.9922 22.5378C13.2484 22.5527 13.5001 22.4652 13.6918 22.2946C13.8835 22.124 13.9996 21.8842 14.0146 21.628C14.0635 20.7892 14.0862 20.0193 14.0862 19.3108C14.0813 15.6596 13.4982 13.6391 12.7031 12.424C12.3056 11.8208 11.8407 11.434 11.4113 11.2198C10.9951 11.01 10.6293 10.9637 10.4116 10.9615C10.3992 10.961 10.3866 10.9596 10.3738 10.9596H9.80597L9.50863 13.2844L8.32922 11.8631L9.14453 10.9596H6.92928L7.74459 11.8631L6.56517 13.2844L6.26784 10.9596H5.70027C5.6641 10.9596 5.62841 10.9621 5.59333 10.9662C5.16487 10.972 4.72468 10.9968 4.29828 11.0083C4.17755 11.0115 4.05731 11.0145 3.93973 11.0144C3.24902 11.0216 2.65036 10.9236 2.37238 10.7514C2.22855 10.666 2.15017 10.5878 2.07577 10.4533C2.00392 10.3178 1.93594 10.0979 1.93545 9.7245C1.93473 9.32132 2.02122 8.74855 2.24912 8.00195C2.32378 7.75641 2.29787 7.49127 2.17707 7.26483C2.05628 7.03839 1.85049 6.8692 1.60497 6.79447C1.59844 6.79241 1.59203 6.79145 1.5855 6.78963V4.26786C1.84981 3.84375 2.52419 3.08639 3.70228 3.78871C6.8942 5.69138 7.08932 1.24819 7.08932 1.24819C7.08932 1.24819 5.41588 2.17576 4.20622 1.08707C3.18237 0.165672 1.94235 0.688243 1.58538 0.87066V0.482239H1.1418V6.76991C0.968562 6.80288 0.807638 6.88258 0.676429 7.0004C0.545221 7.11822 0.448723 7.26967 0.397374 7.43837C0.132096 8.31283 0.000969233 9.0581 1.5072e-06 9.72426C-0.000482356 10.3344 0.115524 10.8884 0.366286 11.3608C0.741521 12.0793 1.40792 12.5099 2.0419 12.7068C2.68363 12.9117 3.3297 12.9475 3.93973 12.9496C3.97312 12.9496 4.00614 12.9488 4.03941 12.9486C4.28969 12.9464 4.53355 12.9386 4.76532 12.9294L4.76545 17.8765Z" fill="#45766A"/>
</svg>
